<svg xmlns="http://www.w3.org/2000/svg" width="34.962" height="46.15" viewBox="0 0 34.962 46.15">
  <g id="lock" transform="translate(2.25 0.164)">
    <path id="Caminho_2487" data-name="Caminho 2487" d="M210.59,253.931a3.09,3.09,0,0,0-1.324,5.882v4.73h2.649v-4.73a3.09,3.09,0,0,0-1.324-5.882Z" transform="translate(-195.359 -230.51)" fill="#e74a50"/>
    <path id="Caminho_2488" data-name="Caminho 2488" d="M97.869,17.617v-4.23a10.387,10.387,0,0,0-20.775,0v4.23a17.481,17.481,0,1,0,20.775,0Zm-17.735-4.23a7.347,7.347,0,0,1,14.694,0v2.421a17.458,17.458,0,0,0-14.694,0ZM87.481,46.11a14.441,14.441,0,1,1,14.441-14.441A14.457,14.457,0,0,1,87.481,46.11Z" transform="translate(-72.25 -3.164)" fill="#e74a50"/>
  </g>
</svg>
