<?xml version="1.0" encoding="iso-8859-1"?>
<!-- Generator: Adobe Illustrator 19.0.0, SVG Export Plug-In . SVG Version: 6.00 Build 0)  -->
<svg version="1.1" id="Layer_1" xmlns="http://www.w3.org/2000/svg" xmlns:xlink="http://www.w3.org/1999/xlink" x="0px" y="0px"
	 viewBox="0 0 512.001 512.001" style="enable-background:new 0 0 512.001 512.001;" xml:space="preserve">
<g>
	<g>
		<path d="M309.793,0H202.209c-20.387,0-36.973,16.586-36.973,36.973v302.459c0,4.95,4.013,8.963,8.963,8.963h3.463v34.528
			c0,4.95,4.013,8.963,8.963,8.963c14.471,0,26.243,11.773,26.243,26.243v26.923c0,4.95,4.013,8.963,8.963,8.963h3.463v49.024
			c0,2.948,1.45,5.707,3.877,7.38c1.518,1.046,3.295,1.582,5.086,1.582c1.076,0,2.157-0.194,3.19-0.587l43.491-16.568
			c3.475-1.324,5.772-4.657,5.772-8.376v-32.456h3.462c4.951,0,8.963-4.013,8.963-8.963v-26.923
			c0-14.471,11.773-26.243,26.244-26.243c4.951,0,8.963-4.013,8.963-8.963v-34.528h3.462c4.951,0,8.963-4.013,8.963-8.963V36.973
			C346.767,16.586,330.181,0,309.793,0z M268.783,480.293l-25.565,9.738v-36.018h25.565V480.293z M281.209,418.129v17.96h-50.416
			v-17.96c0-9.822-3.228-18.901-8.67-26.243h67.757C284.437,399.228,281.209,408.307,281.209,418.129z M195.586,373.959v-25.565
			h120.829v25.565H195.586z M328.84,330.469H183.16V36.973c0-10.503,8.544-19.048,19.048-19.048h107.584
			c10.503,0,19.048,8.544,19.048,19.048V330.469z"/>
	</g>
</g>
<g>
	<g>
		<path d="M307.928,68.227c-4.951,0-8.963,4.013-8.963,8.963v232.366c0,4.95,4.013,8.963,8.963,8.963
			c4.951,0,8.963-4.013,8.963-8.963V77.19C316.891,72.24,312.879,68.227,307.928,68.227z"/>
	</g>
</g>
<g>
	<g>
		<path d="M316.713,37.093c-0.108-0.574-0.287-1.147-0.514-1.685c-0.216-0.538-0.49-1.064-0.814-1.542
			c-0.333-0.49-0.705-0.956-1.122-1.362c-2.079-2.079-5.174-3.035-8.092-2.45c-0.562,0.108-1.134,0.287-1.672,0.514
			c-0.538,0.215-1.065,0.502-1.542,0.825c-0.502,0.323-0.956,0.693-1.364,1.111c-0.418,0.406-0.788,0.872-1.122,1.362
			c-0.324,0.478-0.598,1.004-0.825,1.542c-0.215,0.538-0.394,1.111-0.502,1.685c-0.12,0.574-0.178,1.159-0.178,1.745
			c0,2.366,0.956,4.673,2.628,6.334c0.406,0.417,0.86,0.788,1.362,1.123c0.477,0.323,1.004,0.598,1.542,0.825
			c0.538,0.215,1.111,0.394,1.672,0.502c0.586,0.12,1.171,0.179,1.758,0.179c2.354,0,4.671-0.956,6.334-2.629
			c1.672-1.661,2.629-3.968,2.629-6.334C316.892,38.252,316.831,37.666,316.713,37.093z"/>
	</g>
</g>
<g>
</g>
<g>
</g>
<g>
</g>
<g>
</g>
<g>
</g>
<g>
</g>
<g>
</g>
<g>
</g>
<g>
</g>
<g>
</g>
<g>
</g>
<g>
</g>
<g>
</g>
<g>
</g>
<g>
</g>
</svg>
